<?xml version="1.0" standalone="no"?>
<!DOCTYPE svg PUBLIC "-//W3C//DTD SVG 20010904//EN"
 "http://www.w3.org/TR/2001/REC-SVG-20010904/DTD/svg10.dtd">
<svg version="1.0" xmlns="http://www.w3.org/2000/svg"
 width="786.000000pt" height="540.000000pt" viewBox="0 0 786.000000 540.000000"
 preserveAspectRatio="xMidYMid meet">

<g transform="translate(0.000000,540.000000) scale(0.100000,-0.100000)"
fill="#000000" stroke="none">
<path d="M6915 5385 c-33 -7 -96 -25 -140 -40 -44 -15 -113 -37 -152 -50 l-73
-23 6 24 c5 21 3 24 -22 24 -16 -1 -54 -16 -84 -35 -30 -19 -101 -57 -157 -84
-164 -79 -428 -229 -537 -303 -35 -25 -225 -103 -208 -86 20 20 15 66 -8 73
-24 8 -27 6 -111 -62 -108 -86 -261 -189 -403 -269 -120 -68 -127 -72 -148
-90 -19 -18 -19 -18 -13 9 5 16 3 27 -3 27 -49 0 -162 -85 -191 -142 -56 -113
-156 -248 -280 -377 -53 -56 -64 -63 -89 -58 -24 5 -35 -1 -70 -36 -23 -23
-51 -63 -62 -90 -12 -26 -26 -45 -31 -41 -11 7 -4 114 12 173 11 45 -20 121
-49 121 -15 0 -21 9 -25 44 -4 28 -16 54 -36 75 -30 33 -61 41 -61 17 0 -28
-20 -27 -50 4 -16 17 -30 35 -30 40 0 5 -22 9 -48 8 -42 0 -51 -4 -68 -29 -23
-35 -32 -36 -44 -4 -13 34 -26 31 -52 -10 -18 -27 -28 -34 -45 -30 -17 4 -23
-1 -32 -27 -6 -17 -11 -39 -11 -49 0 -11 -9 -19 -22 -21 -22 -3 -23 -7 -23
-87 0 -59 -4 -86 -13 -89 -9 -3 -11 -17 -6 -53 7 -53 -5 -66 -28 -29 -7 11
-18 20 -24 20 -6 0 -19 10 -30 21 -30 34 -153 133 -214 172 -30 19 -71 52 -90
72 -19 20 -62 51 -95 67 -33 17 -87 48 -121 69 -66 42 -88 47 -102 24 -9 -16
-8 -17 -318 130 -96 45 -239 137 -384 246 -94 71 -261 146 -301 136 -20 -5
-126 31 -304 105 -51 21 -340 165 -385 192 -35 21 -123 59 -195 84 -39 14
-150 32 -320 52 -290 34 -394 51 -508 87 -90 28 -134 23 -109 -13 15 -22 127
-87 206 -118 45 -18 128 -55 185 -82 100 -47 102 -49 72 -57 -32 -8 -40 -27
-18 -45 6 -5 62 -20 122 -32 131 -26 251 -63 320 -97 46 -23 215 -184 215
-205 0 -4 -7 -8 -15 -8 -25 0 -17 -34 19 -76 l34 -40 -34 4 c-25 3 -36 0 -40
-12 -11 -28 24 -54 121 -91 52 -20 114 -49 139 -65 43 -28 45 -31 35 -57 -17
-45 33 -207 74 -242 21 -16 42 -2 51 34 9 36 62 50 142 36 57 -10 144 -45 144
-57 0 -3 -8 -21 -19 -42 -10 -20 -21 -64 -24 -98 -3 -36 -15 -81 -31 -112 -43
-85 -86 -201 -86 -232 0 -27 22 -60 39 -60 5 0 16 20 25 44 13 34 35 59 88
102 49 39 76 70 90 101 13 29 29 48 46 54 15 6 55 24 90 40 72 35 102 38 154
16 48 -20 57 -53 31 -104 -28 -53 -38 -127 -20 -142 15 -12 28 -8 97 30 24 13
55 19 99 19 35 0 85 8 110 17 53 19 73 15 95 -19 14 -21 13 -30 -5 -98 -33
-118 -34 -129 -14 -137 13 -5 26 4 49 32 17 22 40 50 52 63 l20 25 0 -114 c0
-75 4 -122 13 -137 7 -13 15 -57 18 -98 7 -82 25 -113 48 -80 8 10 22 52 31
92 14 60 26 85 62 127 25 29 57 79 72 112 15 33 34 66 43 73 25 21 99 39 127
31 14 -4 18 -7 9 -8 -8 -1 -27 -13 -42 -28 -20 -22 -26 -38 -25 -70 0 -22 -3
-46 -7 -52 -7 -12 7 -80 36 -171 13 -43 26 -62 57 -85 51 -37 57 -54 37 -100
-8 -21 -15 -50 -15 -66 0 -15 -4 -31 -10 -34 -5 -3 -10 -18 -10 -33 0 -38 -26
-157 -60 -275 -16 -56 -30 -131 -31 -165 -2 -40 -8 -69 -17 -79 -13 -13 -13
-21 3 -73 12 -41 16 -73 11 -107 -4 -32 1 -90 14 -164 10 -63 22 -163 25 -222
l6 -108 -41 -67 -42 -67 12 -65 c9 -49 9 -80 1 -123 -9 -51 -8 -69 10 -135 12
-43 36 -109 54 -148 l33 -70 55 -13 c31 -7 60 -18 66 -24 5 -7 23 -46 39 -87
17 -41 51 -124 76 -185 27 -65 46 -126 46 -148 0 -47 -33 -179 -56 -227 -24
-48 -87 -126 -146 -181 -45 -41 -49 -48 -39 -68 16 -29 36 -27 114 14 168 86
219 130 256 222 8 19 22 34 37 37 13 4 35 18 50 33 34 34 29 74 -20 181 -20
42 -44 109 -55 148 -10 38 -39 122 -64 185 -25 63 -49 132 -52 154 -4 22 -12
50 -18 63 -8 18 -8 25 1 31 17 10 42 112 42 170 0 74 -26 148 -71 196 -21 23
-39 48 -39 55 0 16 89 103 131 127 16 9 34 32 39 49 8 23 34 49 86 88 80 60
99 66 108 38 7 -21 78 -46 87 -30 4 6 10 31 14 55 9 64 49 53 64 -19 4 -17 14
-36 24 -42 14 -9 22 -6 42 17 32 34 39 34 72 -3 32 -36 41 -37 49 -6 8 34 30
39 79 20 l42 -16 7 -97 c4 -54 4 -105 0 -115 -4 -10 -31 -28 -61 -42 -86 -37
-148 -89 -191 -157 -39 -62 -68 -149 -56 -168 13 -22 84 22 84 52 0 9 9 27 19
40 l20 24 -4 -47 c-5 -68 -41 -132 -102 -184 -73 -63 -78 -75 -53 -124 17 -34
24 -39 44 -34 16 4 25 0 30 -11 5 -13 14 -16 34 -12 22 4 30 1 37 -15 22 -48
39 -45 106 16 35 32 72 62 82 68 17 8 18 6 11 -29 -4 -21 -11 -49 -16 -63 -10
-24 -24 -97 -48 -245 -7 -38 -18 -97 -26 -130 -9 -33 -19 -83 -23 -112 -4 -29
-14 -60 -22 -70 -30 -35 -42 -81 -34 -136 4 -28 8 -81 9 -117 3 -90 20 -119
86 -152 127 -63 158 -19 121 172 -27 136 -26 205 3 310 45 162 149 446 176
480 28 35 70 116 70 134 0 9 18 71 41 138 31 92 41 140 41 188 1 112 -8 234
-20 263 -7 16 -12 43 -12 62 0 19 -5 46 -10 61 -9 22 -6 36 14 78 14 28 30 68
36 89 6 20 15 37 20 37 5 0 12 16 16 35 3 19 10 38 15 41 16 10 38 69 65 173
22 87 25 110 15 136 -14 40 -14 187 0 291 10 70 9 92 -5 155 -20 85 -32 265
-22 332 7 44 8 46 35 41 32 -7 41 10 41 79 0 20 4 37 9 37 13 0 7 98 -6 111
-6 6 -9 17 -7 24 3 7 1 16 -5 20 -6 3 -11 10 -11 16 0 17 55 9 105 -16 28 -13
58 -25 67 -25 21 0 38 29 38 67 1 79 37 109 117 94 26 -5 61 -14 76 -20 16 -6
54 -11 85 -11 50 0 61 -4 101 -38 86 -70 80 -67 95 -47 10 14 11 28 4 54 -24
85 -57 126 -158 194 -55 37 -58 51 -19 84 64 55 64 55 101 34 18 -11 72 -31
120 -45 77 -24 88 -30 102 -60 9 -19 16 -42 16 -53 0 -10 9 -37 20 -60 22 -48
127 -133 166 -133 22 0 24 4 24 57 0 40 5 62 18 76 14 16 17 37 15 128 -1 76
-6 118 -17 140 -19 39 -19 39 -2 39 25 0 39 26 26 50 -10 19 -9 20 7 11 10 -5
58 -26 107 -47 116 -48 142 -35 102 47 -13 26 -12 27 23 33 72 12 102 7 252
-40 55 -17 85 -18 94 -3 15 23 -9 66 -66 120 -54 52 -59 60 -49 79 7 12 10 51
8 88 l-3 67 70 0 70 0 -3 28 c-2 17 2 27 10 27 30 0 126 -67 204 -142 81 -78
114 -93 114 -52 0 23 -83 184 -143 277 -27 44 -46 82 -41 86 13 12 97 31 133
31 47 0 132 -43 176 -89 96 -100 128 -1 55 170 -16 39 -30 73 -30 76 0 2 38 1
85 -3 74 -6 85 -5 91 10 5 12 -4 28 -27 52 -18 19 -31 34 -28 34 3 0 57 7 120
15 123 17 219 13 308 -11 59 -17 81 -13 81 13 0 24 -54 66 -115 88 -54 20 -95
51 -95 71 0 17 50 51 102 70 24 8 102 19 173 24 72 5 163 16 203 25 l72 17 0
42 0 43 -147 7 c-237 10 -363 23 -448 45 -117 30 -226 51 -260 50 -16 0 -57
-7 -90 -14z m-3413 -2295 c11 -25 32 -50 61 -71 40 -28 49 -42 77 -116 l32
-85 -22 -79 c-22 -78 -24 -81 -83 -122 l-59 -41 5 -46 c3 -26 14 -63 23 -84
16 -33 17 -40 4 -64 -8 -14 -42 -40 -74 -57 -33 -17 -62 -40 -66 -50 -4 -11
-23 -23 -46 -29 -29 -9 -43 -19 -53 -44 -8 -17 -20 -32 -28 -32 -15 0 -17 11
-34 140 -6 52 -16 103 -21 113 -7 14 -3 28 17 58 16 23 25 45 21 55 -3 9 1 37
10 62 11 33 14 64 9 104 -6 62 6 104 48 160 15 20 29 60 37 100 10 57 17 71
45 92 18 14 36 37 39 51 10 39 40 32 58 -15z m867 -42 c82 -177 117 -355 105
-541 -5 -79 -11 -103 -44 -172 -21 -44 -43 -95 -50 -113 -16 -40 -27 -31 -33
25 -2 25 -15 56 -31 77 l-27 36 32 -7 c21 -4 34 -2 40 8 4 8 8 73 7 146 -1
123 -3 134 -22 147 -25 16 -76 112 -76 142 0 11 -11 35 -25 54 -31 42 -31 42
1 121 44 111 64 149 77 149 7 0 28 -33 46 -72z"/>
</g>
</svg>
